<?xml version="1.0" standalone="no"?>
<!DOCTYPE svg PUBLIC "-//W3C//DTD SVG 20010904//EN"
 "http://www.w3.org/TR/2001/REC-SVG-20010904/DTD/svg10.dtd">
<svg version="1.0" xmlns="http://www.w3.org/2000/svg"
 width="64.000000pt" height="64.000000pt" viewBox="0 0 64.000000 64.000000"
 preserveAspectRatio="xMidYMid meet">

<g transform="translate(0.000000,64.000000) scale(0.100000,-0.100000)"
fill="#000000" stroke="none">
<path d="M274 605 c-14 -21 -15 -31 -6 -51 7 -13 19 -27 27 -30 11 -5 15 -23
15 -75 0 -39 4 -69 10 -69 6 0 10 30 10 69 0 52 4 70 15 75 8 3 20 17 27 30
16 36 -11 76 -52 76 -21 0 -35 -8 -46 -25z m71 -30 c0 -25 -4 -30 -25 -30 -16
0 -26 6 -28 18 -6 30 6 49 30 45 18 -2 23 -9 23 -33z"/>
<path d="M156 464 c-22 -21 -20 -61 4 -81 16 -14 20 -30 20 -85 0 -54 3 -68
15 -68 12 0 15 14 15 68 0 55 4 71 20 85 39 33 16 97 -35 97 -13 0 -31 -7 -39
-16z m68 -29 c7 -19 -20 -46 -39 -39 -21 8 -26 32 -9 48 16 17 40 12 48 -9z"/>
<path d="M406 464 c-22 -21 -20 -61 4 -81 16 -14 20 -30 20 -85 0 -54 3 -68
15 -68 12 0 15 14 15 68 0 55 4 71 20 85 39 33 16 97 -35 97 -13 0 -31 -7 -39
-16z m68 -29 c3 -8 -2 -21 -10 -29 -8 -8 -21 -13 -29 -10 -21 8 -26 32 -9 48
16 17 40 12 48 -9z"/>
<path d="M274 305 c-14 -21 -15 -31 -6 -51 7 -13 19 -27 27 -30 11 -5 15 -21
15 -60 0 -30 5 -54 10 -54 6 0 10 24 10 54 0 39 4 55 15 60 8 3 20 17 27 30
16 36 -11 76 -52 76 -21 0 -35 -8 -46 -25z m70 -18 c16 -25 -16 -56 -38 -37
-19 15 -20 32 -4 48 15 15 28 11 42 -11z"/>
<path d="M23 294 c-15 -24 -15 -29 -2 -53 11 -20 25 -27 59 -32 65 -9 98 -52
102 -133 4 -79 22 -79 26 0 3 60 2 62 -43 111 -29 34 -43 57 -39 67 3 9 -1 27
-10 41 -23 35 -70 34 -93 -1z m72 -29 c0 -25 -4 -30 -25 -30 -16 0 -26 6 -28
18 -6 30 6 49 30 45 18 -2 23 -9 23 -33z"/>
<path d="M525 296 c-9 -14 -14 -33 -11 -44 4 -13 -7 -33 -39 -68 -45 -48 -46
-50 -43 -109 4 -76 22 -74 26 2 3 51 7 62 40 96 27 28 44 37 69 37 24 0 37 7
50 26 15 24 15 29 2 53 -21 37 -72 41 -94 7z m69 -19 c16 -25 -16 -56 -38 -37
-19 15 -20 32 -4 48 15 15 28 11 42 -11z"/>
<path d="M310 35 c0 -14 5 -25 10 -25 6 0 10 11 10 25 0 14 -4 25 -10 25 -5 0
-10 -11 -10 -25z"/>
</g>
</svg>
